<?xml version="1.0" encoding="utf-8"?>
<!-- Generator: Adobe Illustrator 18.1.1, SVG Export Plug-In . SVG Version: 6.00 Build 0)  -->
<!DOCTYPE svg PUBLIC "-//W3C//DTD SVG 1.1//EN" "http://www.w3.org/Graphics/SVG/1.1/DTD/svg11.dtd">
<svg version="1.1" id="Layer_2" xmlns="http://www.w3.org/2000/svg" xmlns:xlink="http://www.w3.org/1999/xlink" x="0px" y="0px"
	 width="64.9px" height="61.8px" viewBox="-352.4 252.4 64.9 61.8" enable-background="new -352.4 252.4 64.9 61.8"
	 xml:space="preserve">
<linearGradient id="SVGID_1_" gradientUnits="userSpaceOnUse" x1="-348.4319" y1="292.4318" x2="-290.8356" y2="292.4318">
	<stop  offset="5.618842e-03" style="stop-color:#F17219"/>
	<stop  offset="1" style="stop-color:#EA5B03"/>
</linearGradient>
<path fill="url(#SVGID_1_)" stroke="#BF3B08" stroke-miterlimit="10" d="M-297,285.6c-0.1-0.2-0.2-0.2-0.4-0.2c-3,0-6.1,0-9.1,0
	c-0.1,0-0.2,0-0.2,0v4.8h0.3c0.8,0,1.5,0,2.3,0c0.2,0,0.3,0,0.3,0.2c0.3,1.2,0.7,2.4,1.1,3.6c0,0.1,0,0.1,0,0.2h-33.7
	c0,0,0-0.1,0-0.1c0.4-1.3,0.7-2.5,1.1-3.8c0-0.1,0.1-0.1,0.2-0.1c0.6,0,1.2,0,1.9,0h0.7v-4.8h-0.3c-3,0-6,0-9.1,0
	c-0.2,0-0.3,0.1-0.4,0.3c-1.9,4.2-3.7,8.4-5.6,12.6c-0.2,0.5-0.4,0.9-0.6,1.4h57.6C-292.9,294.9-295,290.2-297,285.6z"/>
<path fill="#BF3B08" d="M-349.2,299.9v12.7c0.1,0,0.2,0,0.3,0h58.7c0-0.2,0-0.3,0-0.4c0-4.1,0-8.2,0-12.2L-349.2,299.9L-349.2,299.9
	z"/>
<linearGradient id="SVGID_2_" gradientUnits="userSpaceOnUse" x1="-295.4147" y1="266.9563" x2="-295.4147" y2="254.2763">
	<stop  offset="6.350062e-04" style="stop-color:#76A1F0"/>
	<stop  offset="1" style="stop-color:#6B90D5"/>
</linearGradient>
<path fill="url(#SVGID_2_)" d="M-288.1,254.3h-14.6V267c0,0,0.1,0,0.1,0h14.5c0-0.2,0-0.3,0-0.4
	C-288.1,262.4-288.1,258.4-288.1,254.3z"/>
<path fill="#BBF4F7" stroke="#6B90D5" stroke-miterlimit="10" d="M-308.4,273.3c-0.1,0-0.3,0-0.4,0c-0.4,0-0.7,0.1-0.9,0.3
	c-2.7,2-5.5,3.9-8.2,5.9c-0.6,0.4-1.2,0.8-1.9,1c-1.6,0.4-3-0.4-3.4-2c-0.3-1.6,0-3,1-4.3c0.2-0.3,0.5-0.6,0.8-0.9
	c-3.2,0-6.3,0-9.4,0c0,6.4,0,12.8,0,19.2c7.5,0,15,0,22.4,0C-308.4,286.1-308.4,279.7-308.4,273.3z"/>
<path fill="#F0A829" d="M-320.9,271.7c0.2,0,0.2-0.1,0.2-0.2c0.3-0.9,0.6-1.8,0.9-2.7c0.2-0.5,0.5-0.8,1-1.1
	c0.7-0.3,1.5-0.5,2.3-0.4c0.4,0,0.7,0.1,1,0.3c0.4,0.2,0.5,0.5,0.3,0.9c-0.1,0.2-0.2,0.4-0.4,0.6c-1.9,2.1-3.8,4.2-5.7,6.3
	c-0.1,0.1-0.2,0.2-0.3,0.3c-0.3,0.8-0.4,1.5-0.2,2.3c0.2,0.7,0.7,1,1.4,0.8c0.4-0.2,0.9-0.4,1.3-0.7c3.8-2.7,7.5-5.4,11.3-8
	c0.1-0.1,0.2-0.2,0.2-0.3c0.2-0.7,0.4-1.3,0.7-2c0.1-0.2,0.1-0.3,0.3-0.4c0.7-0.7,1.4-1.4,2.1-2.1c0.1-0.1,0.2-0.2,0.2-0.4
	c0-2.2,0-4.5,0-6.7c0-0.1,0-0.2,0-0.3c-0.1,0-0.2,0-0.2,0c-2.5,0-5.1,0-7.6,0c-0.1,0-0.3,0-0.4,0.1c-1.7,1-3.5,2.1-5.2,3.1
	c-1.1,0.7-2.2,1.4-3.3,2.1c-1,0.6-1.7,1.5-2.1,2.6c-0.4,1.1-0.8,2.2-1.1,3.2c-0.3,0.8-0.6,1.7-0.8,2.5c0.1,0,0.1,0,0.2,0
	C-323.7,271.7-322.3,271.7-320.9,271.7z"/>
</svg>
