<?xml version="1.0" encoding="utf-8"?>
<!-- Generator: Adobe Illustrator 19.0.1, SVG Export Plug-In . SVG Version: 6.00 Build 0)  -->
<svg version="1.1" id="Layer_1" xmlns="http://www.w3.org/2000/svg" xmlns:xlink="http://www.w3.org/1999/xlink" x="0px" y="0px"
	 viewBox="38 -42.7 100 84.7" style="enable-background:new 38 -42.7 100 84.7;" xml:space="preserve">
<style type="text/css">
	.st0{fill:#EA5A03;}
</style>
<g>
	<path class="st0" d="M89.6,40.7c-17.7,0-29.1-11.4-29.1-29.1c0-16,12.9-30,13.4-30.6c0.5-0.5,1.3-0.8,2-0.6
		c0.7,0.2,1.3,0.8,1.4,1.5c1.1,4.4,2.6,8.8,3.6,10.5c1.6-1.5,4.7-5.7,5.6-13.5c1.1-9.6-2-16.9-2-16.9c-0.4-0.8-0.1-1.8,0.6-2.4
		c0.7-0.6,1.7-0.6,2.4,0C88-40,98-32.1,105.3-22c4.8,6.7,11.2,17.4,11.2,32.6C116.5,28.3,105.4,40.7,89.6,40.7z M74.4-13.3
		c-3.6,4.7-9.9,14.5-9.9,24.9c0,15.5,9.6,25.1,25.1,25.1c13.5,0,22.9-10.8,22.9-26.2c0-10.7-3.3-20.3-10.5-30.2
		c-3.8-5.3-8.5-10.1-12-13.3c0.6,3.3,1,7.5,0.5,12.4C89.2-9,83.3-3.4,81.2-3.1c-0.1,0-0.3,0-0.4,0C79.8-3.1,77.3-3.1,74.4-13.3z"/>
</g>
</svg>
