<?xml version="1.0" encoding="utf-8"?>
<!-- Generator: Adobe Illustrator 19.0.1, SVG Export Plug-In . SVG Version: 6.00 Build 0)  -->
<svg version="1.1"
	 id="Layer_1" xmlns:svg="http://www.w3.org/2000/svg" xmlns:cc="http://creativecommons.org/ns#" xmlns:rdf="http://www.w3.org/1999/02/22-rdf-syntax-ns#" xmlns:dc="http://purl.org/dc/elements/1.1/"
	 xmlns="http://www.w3.org/2000/svg" xmlns:xlink="http://www.w3.org/1999/xlink" x="0px" y="0px" viewBox="0 0 24 24"
	 style="enable-background:new 0 0 24 24;" xml:space="preserve">
<style type="text/css">
	.st0{fill:#EA5A03;}
</style>
<path class="st0" d="M12.2,0.3c-2.4,0-4.9,0.7-7,2.2c-5.2,3.8-6.4,11.1-2.6,16.3s11.1,6.4,16.3,2.6s6.4-11.1,2.6-16.3
	C19.2,2,15.7,0.4,12.2,0.3z M12.1,1.8c3.1,0.1,6.1,1.5,8.1,4.2c3.3,4.5,2.3,10.9-2.3,14.2C13.4,23.5,7.1,22.5,3.8,18
	C0.5,13.4,1.5,7.1,6,3.8C7.9,2.4,10,1.8,12.1,1.8z M12,3.3c-0.3,0-0.5,0.2-0.5,0.5v2.8C11.5,6.8,11.7,7,12,7s0.5-0.2,0.5-0.5V3.8
	C12.5,3.5,12.3,3.3,12,3.3z M9.4,3.7c0,0-0.1,0-0.1,0C9.1,3.8,8.9,4.1,9,4.3l0.9,2.6c0.1,0.2,0.3,0.4,0.6,0.3
	c0.2-0.1,0.4-0.3,0.3-0.6L9.9,4C9.8,3.8,9.6,3.7,9.4,3.7z M14.5,3.7c-0.2,0-0.3,0.1-0.4,0.3l-0.9,2.6c-0.1,0.2,0.1,0.5,0.3,0.6
	c0.2,0.1,0.5-0.1,0.6-0.3L15,4.3c0.1-0.2-0.1-0.5-0.3-0.6C14.6,3.7,14.6,3.7,14.5,3.7z M7.1,4.9c-0.1,0-0.2,0-0.3,0.1
	C6.7,5.1,6.6,5.4,6.8,5.6l1.6,2.3C8.6,8.1,8.9,8.1,9.1,8c0.2-0.2,0.3-0.4,0.1-0.6L7.6,5C7.4,4.9,7.3,4.9,7.1,4.9z M16.8,4.9
	c-0.1,0-0.2,0.1-0.3,0.2l-1.6,2.3C14.7,7.5,14.8,7.8,15,8c0.2,0.2,0.5,0.1,0.6-0.1l1.6-2.3c0.2-0.2,0.1-0.5-0.1-0.6
	C17,4.9,16.9,4.9,16.8,4.9z M5.3,6.7C5.2,6.7,5,6.8,4.9,6.9C4.8,7.1,4.8,7.4,5,7.5l2.3,1.6C7.5,9.3,7.8,9.3,8,9.1s0.1-0.5-0.1-0.6
	L5.6,6.8C5.5,6.7,5.4,6.7,5.3,6.7z M18.6,6.7c-0.1,0-0.2,0-0.3,0.1l-2.2,1.6c-0.2,0.2-0.3,0.4-0.1,0.6c0.2,0.2,0.4,0.3,0.6,0.1
	L19,7.5c0.2-0.2,0.3-0.4,0.1-0.6C19,6.8,18.8,6.7,18.6,6.7z M11.9,10.2c-0.1,0-0.2,0.1-0.2,0.2l-0.9,4.4c-0.6,0.4-1.1,1.1-1.1,1.9
	c0,1.2,1,2.3,2.3,2.3c1.2,0,2.3-1,2.3-2.3c0-0.8-0.4-1.5-1.1-1.9l-0.9-4.4C12.3,10.3,12.1,10.2,11.9,10.2C12,10.2,12,10.2,11.9,10.2
	z"/>
</svg>
